<?xml version="1.0" standalone="no"?>
<!DOCTYPE svg PUBLIC "-//W3C//DTD SVG 20010904//EN"
 "http://www.w3.org/TR/2001/REC-SVG-20010904/DTD/svg10.dtd">
<svg version="1.0" xmlns="http://www.w3.org/2000/svg"
 width="512.000000pt" height="512.000000pt" viewBox="0 0 512.000000 512.000000"
 preserveAspectRatio="xMidYMid meet">

<g transform="translate(0.000000,512.000000) scale(0.100000,-0.100000)"
fill="#000000" stroke="none">
<path d="M2455 4254 c-517 -76 -927 -309 -1224 -694 -219 -283 -340 -600 -372
-973 -38 -444 123 -946 414 -1288 l56 -66 -130 -226 c-134 -236 -143 -261
-115 -316 27 -51 103 -67 149 -31 14 11 76 108 137 215 61 107 115 195 119
195 4 0 42 -27 86 -60 465 -357 1088 -463 1650 -280 195 64 354 147 526 275
l96 72 114 -200 c117 -205 144 -237 199 -237 40 0 87 35 100 74 15 45 6 65
-139 315 -61 106 -111 197 -111 202 0 5 27 42 61 82 88 105 152 205 224 352
98 199 150 380 174 597 35 314 -20 644 -155 937 l-34 75 44 45 c59 62 79 105
79 171 0 60 -25 120 -65 156 -12 12 -65 43 -117 69 l-94 47 61 61 c72 73 87
106 72 153 -16 46 -54 74 -102 74 -36 0 -47 -7 -109 -67 -38 -36 -71 -64 -73
-62 -2 2 -22 40 -44 85 -22 44 -53 96 -68 114 -55 64 -161 88 -242 55 -20 -9
-58 -37 -84 -62 l-46 -46 -109 46 c-131 55 -240 89 -370 118 -79 17 -140 22
-313 24 -118 2 -228 1 -245 -1z m412 -215 c140 -19 412 -98 447 -130 5 -5 -7
-26 -29 -50 -62 -69 -79 -118 -83 -247 -2 -62 -7 -112 -11 -110 -48 22 -210
81 -257 93 -391 98 -840 -38 -1123 -341 -422 -451 -422 -1150 -1 -1597 47 -50
119 -116 160 -146 461 -343 1110 -296 1520 109 345 340 445 865 249 1299 -16
35 -29 65 -29 67 0 2 47 4 105 4 125 0 190 20 259 81 l46 41 21 -49 c294 -682
60 -1497 -555 -1937 -410 -293 -951 -375 -1438 -215 -431 141 -803 483 -977
900 -212 507 -159 1069 144 1524 250 376 647 629 1100 700 100 16 348 18 452
4z m755 -481 c-108 -109 -200 -198 -204 -198 -12 0 -9 285 2 317 6 15 73 90
148 166 l137 137 57 -112 56 -113 -196 -197z m452 -5 c50 -26 97 -52 104 -57
10 -7 -18 -41 -115 -138 -70 -71 -140 -136 -155 -144 -20 -10 -67 -14 -185
-14 l-158 0 200 200 c110 110 204 200 209 200 5 0 50 -21 100 -47z m-1171
-172 c90 -25 170 -59 245 -104 l52 -31 0 -56 0 -55 -119 -119 -118 -118 -49
25 c-88 44 -154 60 -244 60 -177 1 -336 -79 -436 -218 -156 -219 -132 -501 59
-689 107 -106 227 -156 372 -156 249 0 463 171 521 416 28 119 4 282 -55 378
l-20 32 122 122 122 122 50 0 c48 0 51 -2 76 -43 160 -257 188 -575 74 -855
-174 -427 -631 -670 -1085 -576 -353 72 -635 341 -732 695 -20 72 -23 107 -22
249 0 151 3 173 28 255 108 354 373 599 736 680 95 21 321 14 423 -14z m-142
-622 c19 -7 36 -14 38 -16 3 -2 -50 -59 -117 -127 -105 -106 -122 -127 -122
-155 0 -68 42 -110 109 -111 43 0 47 3 167 121 l122 121 10 -34 c20 -64 23
-110 11 -166 -14 -72 -31 -103 -82 -159 -58 -63 -126 -95 -213 -101 -135 -9
-243 52 -304 172 -32 63 -35 77 -34 150 0 64 5 91 24 131 33 68 108 139 172
164 60 23 166 27 219 10z"/>
</g>
</svg>
